<mxfile host="65bd71144e">
    <diagram id="PuCIULA2z8MLXYJhtObA" name="Page-1">
        <mxGraphModel dx="2104" dy="722" grid="1" gridSize="10" guides="1" tooltips="1" connect="1" arrows="1" fold="1" page="1" pageScale="1" pageWidth="850" pageHeight="1100" background="#ffffff" math="0" shadow="0">
            <root>
                <mxCell id="0"/>
                <mxCell id="1" parent="0"/>
                <mxCell id="2" value="Data Structures Library&amp;nbsp;&lt;div&gt;(&lt;font face=&quot;Courier New&quot;&gt;C++&lt;/font&gt;)&lt;/div&gt;" style="rounded=0;whiteSpace=wrap;html=1;dashed=1;" vertex="1" parent="1">
                    <mxGeometry x="-20" y="360" width="140" height="80" as="geometry"/>
                </mxCell>
                <mxCell id="28" value="imports" style="edgeStyle=none;html=1;" edge="1" parent="1" source="4" target="2">
                    <mxGeometry relative="1" as="geometry"/>
                </mxCell>
                <mxCell id="4" value="Library benchmark (&lt;font face=&quot;Courier New&quot;&gt;C++&lt;/font&gt;)" style="rounded=0;whiteSpace=wrap;html=1;" vertex="1" parent="1">
                    <mxGeometry x="200" y="360" width="120" height="80" as="geometry"/>
                </mxCell>
                <mxCell id="15" value="generates" style="edgeStyle=orthogonalEdgeStyle;html=1;entryX=0.25;entryY=1;entryDx=0;entryDy=0;entryPerimeter=0;" edge="1" parent="1" source="7" target="21">
                    <mxGeometry x="-0.424" relative="1" as="geometry">
                        <mxPoint x="552.4705882352941" y="410" as="targetPoint"/>
                        <mxPoint as="offset"/>
                    </mxGeometry>
                </mxCell>
                <mxCell id="7" value="Python benchmark (&lt;font face=&quot;Courier New&quot;&gt;Python&lt;/font&gt;)" style="rounded=0;whiteSpace=wrap;html=1;" vertex="1" parent="1">
                    <mxGeometry x="200" y="450" width="120" height="80" as="geometry"/>
                </mxCell>
                <mxCell id="13" value="generates" style="edgeStyle=orthogonalEdgeStyle;html=1;entryX=0;entryY=0;entryDx=0;entryDy=10;entryPerimeter=0;" edge="1" parent="1" source="8" target="21">
                    <mxGeometry x="-0.0551" relative="1" as="geometry">
                        <mxPoint x="510" y="310" as="targetPoint"/>
                        <mxPoint as="offset"/>
                    </mxGeometry>
                </mxCell>
                <mxCell id="8" value="TS Benchmark (&lt;font face=&quot;Courier New&quot;&gt;TypeScript&lt;/font&gt;)" style="rounded=0;whiteSpace=wrap;html=1;" vertex="1" parent="1">
                    <mxGeometry x="200" y="270" width="120" height="80" as="geometry"/>
                </mxCell>
                <mxCell id="12" value="generates" style="edgeStyle=orthogonalEdgeStyle;html=1;entryX=0;entryY=0;entryDx=37.5;entryDy=0;entryPerimeter=0;" edge="1" parent="1" source="9" target="21">
                    <mxGeometry x="-0.405" relative="1" as="geometry">
                        <mxPoint x="552.4705882352941" y="290" as="targetPoint"/>
                        <mxPoint as="offset"/>
                    </mxGeometry>
                </mxCell>
                <mxCell id="9" value="Java benchmark (&lt;font face=&quot;Courier New&quot;&gt;Java&lt;/font&gt;)" style="rounded=0;whiteSpace=wrap;html=1;" vertex="1" parent="1">
                    <mxGeometry x="200" y="180" width="120" height="80" as="geometry"/>
                </mxCell>
                <mxCell id="18" value="generates" style="edgeStyle=none;html=1;entryX=0;entryY=0;entryDx=0;entryDy=100;entryPerimeter=0;" edge="1" parent="1" source="4" target="21">
                    <mxGeometry x="-0.0497" relative="1" as="geometry">
                        <mxPoint x="509.40499999999975" y="400.76" as="targetPoint"/>
                        <mxPoint as="offset"/>
                    </mxGeometry>
                </mxCell>
                <mxCell id="19" value="Benchmarks analyzer (&lt;font face=&quot;Courier New&quot;&gt;Python&lt;/font&gt;)" style="rounded=0;whiteSpace=wrap;html=1;" vertex="1" parent="1">
                    <mxGeometry x="640" y="310" width="130" height="90" as="geometry"/>
                </mxCell>
                <mxCell id="21" value="&lt;span style=&quot;font-weight: normal;&quot;&gt;Benchmarks results&lt;/span&gt;&lt;div&gt;&lt;span style=&quot;font-weight: normal;&quot;&gt;(&lt;font face=&quot;Courier New&quot;&gt;CSV &lt;/font&gt;files)&lt;/span&gt;&lt;/div&gt;" style="shape=folder;fontStyle=1;tabWidth=75;tabHeight=10;tabPosition=left;html=1;boundedLbl=1;whiteSpace=wrap;" vertex="1" parent="1">
                    <mxGeometry x="425" y="300" width="140" height="100" as="geometry"/>
                </mxCell>
                <mxCell id="23" value="loads" style="edgeStyle=none;html=1;entryX=0;entryY=0;entryDx=140;entryDy=55;entryPerimeter=0;" edge="1" parent="1" source="19" target="21">
                    <mxGeometry relative="1" as="geometry"/>
                </mxCell>
                <mxCell id="24" value="&lt;span style=&quot;font-weight: normal;&quot;&gt;Benchmark reports&lt;/span&gt;&lt;div&gt;&lt;span style=&quot;font-weight: normal;&quot;&gt;(&lt;font face=&quot;Courier New&quot;&gt;SVG&lt;/font&gt;&lt;font face=&quot;Helvetica&quot;&gt; &amp;amp; &lt;/font&gt;&lt;font face=&quot;Courier New&quot;&gt;MD&lt;/font&gt;&amp;nbsp;files)&lt;/span&gt;&lt;/div&gt;" style="shape=folder;fontStyle=1;tabWidth=75;tabHeight=10;tabPosition=left;html=1;boundedLbl=1;whiteSpace=wrap;" vertex="1" parent="1">
                    <mxGeometry x="640" y="140" width="130" height="100" as="geometry"/>
                </mxCell>
                <mxCell id="25" value="generates" style="edgeStyle=none;html=1;entryX=0.5;entryY=1;entryDx=0;entryDy=0;entryPerimeter=0;" edge="1" parent="1" source="19" target="24">
                    <mxGeometry relative="1" as="geometry"/>
                </mxCell>
                <mxCell id="27" value="imports" style="edgeStyle=none;html=1;entryX=0.5;entryY=0;entryDx=0;entryDy=0;endArrow=classic;endFill=1;strokeColor=default;" edge="1" parent="1" source="26" target="2">
                    <mxGeometry relative="1" as="geometry"/>
                </mxCell>
                <mxCell id="26" value="Data Structures Analyzer&amp;nbsp;&lt;div&gt;(&lt;font face=&quot;Courier New&quot;&gt;Python&lt;/font&gt;)&lt;/div&gt;" style="rounded=0;whiteSpace=wrap;html=1;" vertex="1" parent="1">
                    <mxGeometry x="-25" y="180" width="150" height="80" as="geometry"/>
                </mxCell>
            </root>
        </mxGraphModel>
    </diagram>
</mxfile>